<?xml version="1.0" encoding="utf-8"?>
<!-- Generator: Adobe Illustrator 22.0.1, SVG Export Plug-In . SVG Version: 6.00 Build 0)  -->
<svg version="1.1" id="Layer_1" xmlns="http://www.w3.org/2000/svg" xmlns:xlink="http://www.w3.org/1999/xlink" x="0px" y="0px"
	 viewBox="0 0 250 250" style="enable-background:new 0 0 250 250;" xml:space="preserve">
<style type="text/css">
	.st0{fill:#808080;}
	.st1{fill:#FFFFFF;}
</style>
<g>
	<path d="M200,0H12C5.4,0,0,5.4,0,12v226c0,6.6,5.4,12,12,12h226c6.6,0,12-5.4,12-12V50L200,0z"/>
	<path class="st0" d="M200,38c0,6.6,5.4,12,12,12h38L200,0V38z"/>
</g>
<g>
	<g>
		<path class="st1" d="M204.2,89.8h-78.5l5.8,20.9c0.8,2.7-0.8,5.5-3.6,6.3c-2.7,0.8-5.5-0.9-6.3-3.6l-6.5-23.6h-8.8l1.6,28.5
			c0.2,2.8-2,5.1-4.8,5.3c-2.8,0.2-5.2-2.2-5.4-5l-1.6-28.7h-7.9l-1.7,24c-0.2,2.8-2.6,4.9-5.5,4.7s-4.9-2.6-4.7-5.5l1.7-23.3H68
			l-1.4,4.9c-0.8,2.7-3.6,4.3-6.3,3.5c-2.7-0.8-4.3-3.6-3.5-6.3l0.6-2H45.8v70.4h78.5l-5.8-20.9c-0.8-2.7,0.8-5.5,3.6-6.3
			c2.7-0.8,5.5,0.9,6.3,3.6l6.5,23.6h8.8l-1.6-28.5c-0.2-2.8,2-5.1,4.8-5.3c2.8-0.2,5.2,2.2,5.4,5l1.6,28.7h7.9l1.7-24
			c0.2-2.8,2.6-4.9,5.5-4.7s4.9,2.6,4.7,5.5l-1.7,23.3H182l1.4-4.9c0.8-2.7,3.6-4.3,6.3-3.5c2.7,0.8,4.3,3.6,3.5,6.3l-0.6,2h11.5
			V89.8z"/>
	</g>
	<g>
		<path class="st1" d="M177.6,175.3c-0.3,1.6-1.7,2.8-3.3,2.8c-1.9,0-3.4-1.5-3.4-3.4c0-0.1,0-0.1,0-0.2l0,0l1-14.3h-10.2l-0.6,8.9
			c0,0,0,0.1,0,0.1c0,1.9-1.5,3.8-3.4,3.8c-1.8,0-3.3-1.4-3.4-2.9h0l-0.5-9.8h-10.2l0.5,8.3c0,0,0,0.6,0,0.6l0,0.9h0
			c0,0-1.5,2.7-3.4,2.7c-1.6,0-2.9-1.4-3.3-2.9l-2.6-9.6h-10.5l5.4,19.6l0,0c0.4,1.1,0.6,2.2,0.6,3.4c0,5.3-4.3,9.6-9.6,9.6
			c-2.9,0-5.6-1.3-7.3-3.4l0,0l-7.9-9l0,0c-0.9-1.1-2.3-1.7-3.8-1.7c-2.8,0-5.1,2.3-5.1,5.1c0,1.3,0.5,2.5,1.3,3.4l0,0l33.1,37.6
			c4.7,6.2,12.2,10.3,20.6,10.3c12.5,0,22.9-8.9,25.3-20.6l16-54.2H182L177.6,175.3z"/>
	</g>
	<g>
		<path class="st1" d="M72.4,74.7c0.3-1.6,1.7-2.8,3.3-2.8c1.9,0,3.4,1.5,3.4,3.4c0,0.1,0,0.1,0,0.2l0,0l-1,14.3h10.2l0.6-8.9
			c0,0,0-0.1,0-0.1c0-1.9,1.5-3.8,3.4-3.8c1.8,0,3.3,1.4,3.4,2.9h0l0.5,9.8h10.2l-0.5-8.3c0,0,0-0.6,0-0.6l0-0.9h0
			c0,0,1.5-2.7,3.4-2.7c1.6,0,2.9,1.4,3.3,2.9l2.6,9.6h10.5l-5.4-19.6l0,0c-0.4-1.1-0.6-2.2-0.6-3.4c0-5.3,4.3-9.6,9.6-9.6
			c2.9,0,5.6,1.3,7.3,3.4l0,0l7.9,9l0,0c0.9,1.1,2.3,1.7,3.8,1.7c2.8,0,5.1-2.3,5.1-5.1c0-1.3-0.5-2.5-1.3-3.4l0,0l-33.1-37.6
			C114.4,19,107,15,98.5,15c-12.5,0-22.9,8.9-25.3,20.6l-16,54.2H68L72.4,74.7z"/>
	</g>
</g>
</svg>
