<?xml version="1.0" encoding="UTF-8" ?>
<!DOCTYPE svg PUBLIC "-//W3C//DTD SVG 1.1//EN" "http://www.w3.org/Graphics/SVG/1.1/DTD/svg11.dtd">
<svg width="50pt" height="18pt" viewBox="0 0 66 25" version="1.1" xmlns="http://www.w3.org/2000/svg">
<path fill="#d2d2d2" d=" M 0.00 0.00 L 66.00 0.00 L 66.00 1.94 C 63.38 -0.20 60.03 1.74 57.02 1.38 C 50.62 0.94 44.21 0.79 37.80 0.64 C 25.70 1.80 13.50 0.80 1.36 1.24 C 1.02 1.77 0.34 2.83 0.00 3.37 L 0.00 0.00 Z" />
<path fill="#000000" d=" M 1.36 1.24 C 13.50 0.80 25.70 1.80 37.80 0.64 C 44.21 0.79 50.62 0.94 57.02 1.38 C 60.03 1.74 63.38 -0.20 66.00 1.94 L 66.00 23.33 C 65.50 23.59 64.51 24.11 64.01 24.37 C 56.71 23.55 49.34 24.20 42.00 24.00 C 28.62 24.21 15.19 23.56 1.83 24.33 C 1.37 24.03 0.46 23.44 0.00 23.14 L 0.00 3.37 C 0.34 2.83 1.02 1.77 1.36 1.24 Z" />
<path fill="#d2d2d2" d=" M 0.57 3.74 C 1.50 2.78 2.44 1.47 4.00 1.85 C 16.01 1.63 28.03 2.18 40.03 1.50 C 45.37 2.08 50.83 1.36 56.13 2.20 L 56.56 2.75 C 55.79 4.28 53.79 4.49 52.78 5.81 C 49.77 9.01 52.10 15.47 56.85 15.08 C 56.09 15.57 55.33 16.06 54.56 16.54 C 36.89 16.39 19.22 16.63 1.55 16.43 C 1.35 16.19 0.94 15.72 0.74 15.48 C 0.53 11.57 0.87 7.65 0.57 3.74 Z" />
<path fill="#d2d2d2" d=" M 58.89 2.21 C 60.78 1.74 63.77 0.78 65.10 2.81 C 65.46 7.37 65.16 11.95 65.25 16.51 C 62.44 16.53 59.63 16.54 56.84 16.28 C 58.88 14.81 62.01 14.65 63.02 11.99 C 64.28 9.42 62.75 6.77 61.94 4.34 C 60.56 4.45 58.22 4.20 58.89 2.21 Z" />
<path fill="#000000" d=" M 41.56 3.73 C 42.67 3.74 43.77 3.74 44.87 3.74 C 44.14 8.08 47.41 11.20 49.05 14.84 C 45.22 15.06 41.38 15.05 37.54 14.90 C 38.92 11.13 42.37 8.07 41.56 3.73 Z" />
<path fill="#000000" d=" M 22.52 4.49 C 23.43 4.50 24.34 4.51 25.26 4.51 C 25.25 7.84 25.25 11.17 25.26 14.50 C 24.43 14.49 23.61 14.49 22.79 14.49 C 21.22 12.69 19.65 10.87 18.05 9.09 C 18.02 10.94 17.99 12.78 17.96 14.63 C 17.33 14.58 16.06 14.47 15.43 14.42 C 15.03 11.00 15.24 7.54 15.40 4.11 C 18.78 4.42 20.31 7.78 22.46 9.93 C 22.48 8.12 22.50 6.30 22.52 4.49 Z" />
<path fill="#000000" d=" M 5.31 5.20 C 8.38 3.35 13.23 5.00 13.51 8.88 C 14.21 12.91 9.55 15.73 6.07 14.14 C 2.31 12.90 1.91 7.11 5.31 5.20 Z" />
<path fill="#000000" d=" M 27.70 6.06 C 28.85 3.83 31.70 4.62 33.67 4.93 C 33.73 5.55 33.83 6.78 33.88 7.40 C 32.43 6.96 30.96 6.42 29.41 6.66 C 30.88 8.26 33.49 8.90 34.31 11.01 C 34.83 15.34 26.98 15.94 27.07 11.52 C 28.70 11.88 30.37 12.29 32.00 11.73 C 30.17 10.27 26.41 9.09 27.70 6.06 Z" />
<path fill="#00a33d" d=" M 38.58 14.19 C 40.72 11.07 42.59 7.68 42.77 3.81 C 44.21 4.96 44.07 6.89 44.64 8.47 C 45.36 10.55 46.77 12.30 47.88 14.18 C 44.78 14.25 41.68 14.25 38.58 14.19 Z" />
<path fill="#2210d2" d=" M 53.30 12.60 C 50.49 9.33 53.53 4.93 57.17 4.14 C 57.22 6.32 57.25 8.50 57.28 10.69 C 58.45 8.85 59.63 7.03 60.86 5.23 C 63.27 7.83 62.95 11.14 61.03 13.84 C 58.42 14.09 55.11 15.24 53.30 12.60 Z" />
<path fill="#cacaca" d=" M 58.65 6.95 C 57.51 6.28 57.48 5.46 58.56 4.50 C 59.77 5.16 59.80 5.97 58.65 6.95 Z" />
<path fill="#d2d2d2" d=" M 7.18 7.10 C 10.48 5.60 12.38 11.06 9.01 12.00 C 5.95 13.01 4.35 8.29 7.18 7.10 Z" />
<path fill="#d2d2d2" d=" M 38.81 20.66 C 38.68 19.20 39.81 17.21 41.47 18.12 C 42.40 19.67 42.88 21.42 43.39 23.14 C 42.77 22.72 41.55 21.87 40.94 21.45 C 40.94 20.94 40.94 19.93 40.95 19.42 C 40.24 19.84 39.53 20.26 38.81 20.66 L 38.81 20.66 Z" />
<path fill="#d2d2d2" d=" M 48.43 21.03 C 46.48 25.00 41.57 20.73 44.73 17.88 C 45.54 17.92 47.17 18.00 47.99 18.04 C 48.00 18.41 48.02 19.13 48.03 19.50 C 46.47 19.05 45.35 19.53 44.70 20.92 C 45.63 20.95 47.50 21.00 48.43 21.03 Z" />
<path fill="#b3b3b3" d=" M 57.03 18.15 C 57.52 18.16 58.50 18.18 58.99 18.19 C 59.00 19.64 59.01 21.08 59.02 22.53 C 58.51 22.53 57.48 22.53 56.97 22.53 C 56.98 21.07 57.00 19.61 57.03 18.15 Z" />
<path fill="#8a8a8a" d=" M 38.81 20.66 C 39.53 20.26 40.24 19.84 40.95 19.42 C 40.94 19.93 40.94 20.94 40.94 21.45 C 40.59 23.86 36.09 22.78 38.35 20.81 L 38.81 20.66 L 38.81 20.66 Z" />
<path fill="#e5e5e5" d=" M 0.00 23.14 C 0.46 23.44 1.37 24.03 1.83 24.33 L 1.32 25.00 L 0.00 25.00 L 0.00 23.14 Z" />
<path fill="#d2d2d2" d=" M 64.01 24.37 C 64.51 24.11 65.50 23.59 66.00 23.33 L 66.00 25.00 L 64.53 25.00 L 64.01 24.37 Z" />
<path fill="#404040" d=" M 1.83 24.33 C 15.19 23.56 28.62 24.21 42.00 24.00 C 49.34 24.20 56.71 23.55 64.01 24.37 L 64.53 25.00 L 1.32 25.00 L 1.83 24.33 Z" />
</svg>
